{
	"asset":{
		"generator":"Khronos glTF Blender I/O v3.6.28",
		"version":"2.0"
	},
	"scene":0,
	"scenes":[
		{
			"name":"Scene",
			"nodes":[
				0
			]
		}
	],
	"nodes":[
		{
			"mesh":0,
			"name":"right_shoulder_yaw_link.bbox2"
		}
	],
	"meshes":[
		{
			"name":"right_shoulder_yaw_link.bbox2",
			"primitives":[
				{
					"attributes":{
						"POSITION":0,
						"NORMAL":1
					},
					"indices":2
				}
			]
		}
	],
	"accessors":[
		{
			"bufferView":0,
			"componentType":5126,
			"count":138,
			"max":[
				0.03322505205869675,
				0.031981050968170166,
				0.03324127197265625
			],
			"min":[
				-0.033268749713897705,
				-0.038398947566747665,
				-0.032477326691150665
			],
			"type":"VEC3"
		},
		{
			"bufferView":1,
			"componentType":5126,
			"count":138,
			"type":"VEC3"
		},
		{
			"bufferView":2,
			"componentType":5123,
			"count":816,
			"type":"SCALAR"
		}
	],
	"bufferViews":[
		{
			"buffer":0,
			"byteLength":1656,
			"byteOffset":0,
			"target":34962
		},
		{
			"buffer":0,
			"byteLength":1656,
			"byteOffset":1656,
			"target":34962
		},
		{
			"buffer":0,
			"byteLength":1632,
			"byteOffset":3312,
			"target":34963
		}
	],
	"buffers":[
		{
			"byteLength":4944,
			"uri":"right_shoulder_yaw_link.bbox2.STL.bin"
		}
	]
}
