{
	"asset":{
		"generator":"Khronos glTF Blender I/O v3.6.28",
		"version":"2.0"
	},
	"scene":0,
	"scenes":[
		{
			"name":"Scene",
			"nodes":[
				0
			]
		}
	],
	"nodes":[
		{
			"mesh":0,
			"name":"right_wrist_pitch_link"
		}
	],
	"meshes":[
		{
			"name":"right_wrist_pitch_link",
			"primitives":[
				{
					"attributes":{
						"POSITION":0,
						"NORMAL":1
					},
					"indices":2
				}
			]
		}
	],
	"accessors":[
		{
			"bufferView":0,
			"componentType":5126,
			"count":797,
			"max":[
				0.07450000196695328,
				0.028490660712122917,
				0.028490660712122917
			],
			"min":[
				-0.02850000187754631,
				-0.028490660712122917,
				-0.028490660712122917
			],
			"type":"VEC3"
		},
		{
			"bufferView":1,
			"componentType":5126,
			"count":797,
			"type":"VEC3"
		},
		{
			"bufferView":2,
			"componentType":5123,
			"count":4770,
			"type":"SCALAR"
		}
	],
	"bufferViews":[
		{
			"buffer":0,
			"byteLength":9564,
			"byteOffset":0,
			"target":34962
		},
		{
			"buffer":0,
			"byteLength":9564,
			"byteOffset":9564,
			"target":34962
		},
		{
			"buffer":0,
			"byteLength":9540,
			"byteOffset":19128,
			"target":34963
		}
	],
	"buffers":[
		{
			"byteLength":28668,
			"uri":"right_wrist_pitch_link.STL.bin"
		}
	]
}
