{
	"asset":{
		"generator":"Khronos glTF Blender I/O v3.6.28",
		"version":"2.0"
	},
	"scene":0,
	"scenes":[
		{
			"name":"Scene",
			"nodes":[
				0
			]
		}
	],
	"nodes":[
		{
			"mesh":0,
			"name":"right_shoulder_roll_link"
		}
	],
	"meshes":[
		{
			"name":"right_shoulder_roll_link",
			"primitives":[
				{
					"attributes":{
						"POSITION":0,
						"NORMAL":1
					},
					"indices":2
				}
			]
		}
	],
	"accessors":[
		{
			"bufferView":0,
			"componentType":5126,
			"count":4020,
			"max":[
				0.04103577136993408,
				0.03342677280306816,
				0.03994247317314148
			],
			"min":[
				-0.04015251621603966,
				-0.10319999605417252,
				-0.03291530907154083
			],
			"type":"VEC3"
		},
		{
			"bufferView":1,
			"componentType":5126,
			"count":4020,
			"type":"VEC3"
		},
		{
			"bufferView":2,
			"componentType":5123,
			"count":24099,
			"type":"SCALAR"
		}
	],
	"bufferViews":[
		{
			"buffer":0,
			"byteLength":48240,
			"byteOffset":0,
			"target":34962
		},
		{
			"buffer":0,
			"byteLength":48240,
			"byteOffset":48240,
			"target":34962
		},
		{
			"buffer":0,
			"byteLength":48198,
			"byteOffset":96480,
			"target":34963
		}
	],
	"buffers":[
		{
			"byteLength":144680,
			"uri":"right_shoulder_roll_link.STL.bin"
		}
	]
}
