{
	"asset":{
		"generator":"Khronos glTF Blender I/O v3.6.28",
		"version":"2.0"
	},
	"scene":0,
	"scenes":[
		{
			"name":"Scene",
			"nodes":[
				0
			]
		}
	],
	"nodes":[
		{
			"mesh":0,
			"name":"right_shoulder_yaw_link"
		}
	],
	"meshes":[
		{
			"name":"right_shoulder_yaw_link",
			"primitives":[
				{
					"attributes":{
						"POSITION":0,
						"NORMAL":1
					},
					"indices":2
				}
			]
		}
	],
	"accessors":[
		{
			"bufferView":0,
			"componentType":5126,
			"count":2501,
			"max":[
				0.048374809324741364,
				0.031574152410030365,
				0.03310637176036835
			],
			"min":[
				-0.032810695469379425,
				-0.11369692534208298,
				-0.04141250625252724
			],
			"type":"VEC3"
		},
		{
			"bufferView":1,
			"componentType":5126,
			"count":2501,
			"type":"VEC3"
		},
		{
			"bufferView":2,
			"componentType":5123,
			"count":14994,
			"type":"SCALAR"
		}
	],
	"bufferViews":[
		{
			"buffer":0,
			"byteLength":30012,
			"byteOffset":0,
			"target":34962
		},
		{
			"buffer":0,
			"byteLength":30012,
			"byteOffset":30012,
			"target":34962
		},
		{
			"buffer":0,
			"byteLength":29988,
			"byteOffset":60024,
			"target":34963
		}
	],
	"buffers":[
		{
			"byteLength":90012,
			"uri":"right_shoulder_yaw_link.STL.bin"
		}
	]
}
