{
	"asset":{
		"generator":"Khronos glTF Blender I/O v3.6.28",
		"version":"2.0"
	},
	"scene":0,
	"scenes":[
		{
			"name":"Scene",
			"nodes":[
				0
			]
		}
	],
	"nodes":[
		{
			"mesh":0,
			"name":"right_rubber_hand"
		}
	],
	"meshes":[
		{
			"name":"right_rubber_hand",
			"primitives":[
				{
					"attributes":{
						"POSITION":0,
						"NORMAL":1
					},
					"indices":2
				}
			]
		}
	],
	"accessors":[
		{
			"bufferView":0,
			"componentType":5126,
			"count":21928,
			"max":[
				0.13182809948921204,
				0.06344989687204361,
				0.018651476129889488
			],
			"min":[
				-2.8722640266209964e-08,
				-0.043028924614191055,
				-0.0479060634970665
			],
			"type":"VEC3"
		},
		{
			"bufferView":1,
			"componentType":5126,
			"count":21928,
			"type":"VEC3"
		},
		{
			"bufferView":2,
			"componentType":5123,
			"count":131556,
			"type":"SCALAR"
		}
	],
	"bufferViews":[
		{
			"buffer":0,
			"byteLength":263136,
			"byteOffset":0,
			"target":34962
		},
		{
			"buffer":0,
			"byteLength":263136,
			"byteOffset":263136,
			"target":34962
		},
		{
			"buffer":0,
			"byteLength":263112,
			"byteOffset":526272,
			"target":34963
		}
	],
	"buffers":[
		{
			"byteLength":789384,
			"uri":"right_rubber_hand.STL.bin"
		}
	]
}
