{
	"asset":{
		"generator":"Khronos glTF Blender I/O v3.6.28",
		"version":"2.0"
	},
	"scene":0,
	"scenes":[
		{
			"name":"Scene",
			"nodes":[
				0
			]
		}
	],
	"nodes":[
		{
			"mesh":0,
			"name":"right_elbow_link"
		}
	],
	"meshes":[
		{
			"name":"right_elbow_link",
			"primitives":[
				{
					"attributes":{
						"POSITION":0,
						"NORMAL":1
					},
					"indices":2
				}
			]
		}
	],
	"accessors":[
		{
			"bufferView":0,
			"componentType":5126,
			"count":889,
			"max":[
				0.10000001639127731,
				0.029775114730000496,
				0.03477716073393822
			],
			"min":[
				-0.029775112867355347,
				-0.04543027654290199,
				-0.03125531226396561
			],
			"type":"VEC3"
		},
		{
			"bufferView":1,
			"componentType":5126,
			"count":889,
			"type":"VEC3"
		},
		{
			"bufferView":2,
			"componentType":5123,
			"count":5322,
			"type":"SCALAR"
		}
	],
	"bufferViews":[
		{
			"buffer":0,
			"byteLength":10668,
			"byteOffset":0,
			"target":34962
		},
		{
			"buffer":0,
			"byteLength":10668,
			"byteOffset":10668,
			"target":34962
		},
		{
			"buffer":0,
			"byteLength":10644,
			"byteOffset":21336,
			"target":34963
		}
	],
	"buffers":[
		{
			"byteLength":31980,
			"uri":"right_elbow_link.STL.bin"
		}
	]
}
