{
	"asset":{
		"generator":"Khronos glTF Blender I/O v3.6.28",
		"version":"2.0"
	},
	"scene":0,
	"scenes":[
		{
			"name":"Scene",
			"nodes":[
				0
			]
		}
	],
	"nodes":[
		{
			"mesh":0,
			"name":"torso_link"
		}
	],
	"meshes":[
		{
			"name":"torso_link",
			"primitives":[
				{
					"attributes":{
						"POSITION":0,
						"NORMAL":1
					},
					"indices":2
				}
			]
		}
	],
	"accessors":[
		{
			"bufferView":0,
			"componentType":5126,
			"count":22296,
			"max":[
				0.08362693339586258,
				0.30036330223083496,
				0.10771293193101883
			],
			"min":[
				-0.06664290279150009,
				-0.009939233772456646,
				-0.10771457850933075
			],
			"type":"VEC3"
		},
		{
			"bufferView":1,
			"componentType":5126,
			"count":22296,
			"type":"VEC3"
		},
		{
			"bufferView":2,
			"componentType":5123,
			"count":133953,
			"type":"SCALAR"
		}
	],
	"bufferViews":[
		{
			"buffer":0,
			"byteLength":267552,
			"byteOffset":0,
			"target":34962
		},
		{
			"buffer":0,
			"byteLength":267552,
			"byteOffset":267552,
			"target":34962
		},
		{
			"buffer":0,
			"byteLength":267906,
			"byteOffset":535104,
			"target":34963
		}
	],
	"buffers":[
		{
			"byteLength":803012,
			"uri":"torso_link.STL.bin"
		}
	]
}
