{
	"asset":{
		"generator":"Khronos glTF Blender I/O v3.6.28",
		"version":"2.0"
	},
	"scene":0,
	"scenes":[
		{
			"name":"Scene",
			"nodes":[
				0
			]
		}
	],
	"nodes":[
		{
			"mesh":0,
			"name":"waist_roll_link"
		}
	],
	"meshes":[
		{
			"name":"waist_roll_link",
			"primitives":[
				{
					"attributes":{
						"POSITION":0,
						"NORMAL":1
					},
					"indices":2
				}
			]
		}
	],
	"accessors":[
		{
			"bufferView":0,
			"componentType":5126,
			"count":237,
			"max":[
				0.010002371855080128,
				0.028945442289114,
				0.01100226491689682
			],
			"min":[
				-0.010002080351114273,
				-0.010000145994126797,
				-0.011001885868608952
			],
			"type":"VEC3"
		},
		{
			"bufferView":1,
			"componentType":5126,
			"count":237,
			"type":"VEC3"
		},
		{
			"bufferView":2,
			"componentType":5123,
			"count":1446,
			"type":"SCALAR"
		}
	],
	"bufferViews":[
		{
			"buffer":0,
			"byteLength":2844,
			"byteOffset":0,
			"target":34962
		},
		{
			"buffer":0,
			"byteLength":2844,
			"byteOffset":2844,
			"target":34962
		},
		{
			"buffer":0,
			"byteLength":2892,
			"byteOffset":5688,
			"target":34963
		}
	],
	"buffers":[
		{
			"byteLength":8580,
			"uri":"waist_roll_link.STL.bin"
		}
	]
}
