{
	"asset":{
		"generator":"Khronos glTF Blender I/O v3.6.28",
		"version":"2.0"
	},
	"scene":0,
	"scenes":[
		{
			"name":"Scene",
			"nodes":[
				0
			]
		}
	],
	"nodes":[
		{
			"mesh":0,
			"name":"waist_yaw_link"
		}
	],
	"meshes":[
		{
			"name":"waist_yaw_link",
			"primitives":[
				{
					"attributes":{
						"POSITION":0,
						"NORMAL":1
					},
					"indices":2
				}
			]
		}
	],
	"accessors":[
		{
			"bufferView":0,
			"componentType":5126,
			"count":3326,
			"max":[
				0.042368583381175995,
				0.046352848410606384,
				0.042468879371881485
			],
			"min":[
				-0.04249987378716469,
				0.0003520474710967392,
				-0.042462270706892014
			],
			"type":"VEC3"
		},
		{
			"bufferView":1,
			"componentType":5126,
			"count":3326,
			"type":"VEC3"
		},
		{
			"bufferView":2,
			"componentType":5123,
			"count":20172,
			"type":"SCALAR"
		}
	],
	"bufferViews":[
		{
			"buffer":0,
			"byteLength":39912,
			"byteOffset":0,
			"target":34962
		},
		{
			"buffer":0,
			"byteLength":39912,
			"byteOffset":39912,
			"target":34962
		},
		{
			"buffer":0,
			"byteLength":40344,
			"byteOffset":79824,
			"target":34963
		}
	],
	"buffers":[
		{
			"byteLength":120168,
			"uri":"waist_yaw_link.STL.bin"
		}
	]
}
