{
	"asset":{
		"generator":"Khronos glTF Blender I/O v3.6.28",
		"version":"2.0"
	},
	"scene":0,
	"scenes":[
		{
			"name":"Scene",
			"nodes":[
				0
			]
		}
	],
	"nodes":[
		{
			"mesh":0,
			"name":"left_hand_middle_1_link"
		}
	],
	"meshes":[
		{
			"name":"left_hand_middle_1_link",
			"primitives":[
				{
					"attributes":{
						"POSITION":0,
						"NORMAL":1
					},
					"indices":2
				}
			]
		}
	],
	"accessors":[
		{
			"bufferView":0,
			"componentType":5126,
			"count":15221,
			"max":[
				0.05196167528629303,
				0.013100000098347664,
				0.008772044442594051
			],
			"min":[
				-0.007000000216066837,
				-0.012899871915578842,
				-0.008919619023799896
			],
			"type":"VEC3"
		},
		{
			"bufferView":1,
			"componentType":5126,
			"count":15221,
			"type":"VEC3"
		},
		{
			"bufferView":2,
			"componentType":5123,
			"count":91302,
			"type":"SCALAR"
		}
	],
	"bufferViews":[
		{
			"buffer":0,
			"byteLength":182652,
			"byteOffset":0,
			"target":34962
		},
		{
			"buffer":0,
			"byteLength":182652,
			"byteOffset":182652,
			"target":34962
		},
		{
			"buffer":0,
			"byteLength":182604,
			"byteOffset":365304,
			"target":34963
		}
	],
	"buffers":[
		{
			"byteLength":547908,
			"uri":"left_hand_middle_1_link.STL.bin"
		}
	]
}
