{
	"asset":{
		"generator":"Khronos glTF Blender I/O v3.6.28",
		"version":"2.0"
	},
	"scene":0,
	"scenes":[
		{
			"name":"Scene",
			"nodes":[
				0
			]
		}
	],
	"nodes":[
		{
			"mesh":0,
			"name":"left_hand_palm_link"
		}
	],
	"meshes":[
		{
			"name":"left_hand_palm_link",
			"primitives":[
				{
					"attributes":{
						"POSITION":0,
						"NORMAL":1
					},
					"indices":2
				}
			]
		}
	],
	"accessors":[
		{
			"bufferView":0,
			"componentType":5126,
			"count":21392,
			"max":[
				0.08669999986886978,
				0.04389772564172745,
				0.020318157970905304
			],
			"min":[
				1.3113021779531664e-10,
				-0.04389594495296478,
				-0.021416213363409042
			],
			"type":"VEC3"
		},
		{
			"bufferView":1,
			"componentType":5126,
			"count":21392,
			"type":"VEC3"
		},
		{
			"bufferView":2,
			"componentType":5123,
			"count":128397,
			"type":"SCALAR"
		}
	],
	"bufferViews":[
		{
			"buffer":0,
			"byteLength":256704,
			"byteOffset":0,
			"target":34962
		},
		{
			"buffer":0,
			"byteLength":256704,
			"byteOffset":256704,
			"target":34962
		},
		{
			"buffer":0,
			"byteLength":256794,
			"byteOffset":513408,
			"target":34963
		}
	],
	"buffers":[
		{
			"byteLength":770204,
			"uri":"left_hand_palm_link.STL.bin"
		}
	]
}
