{
	"asset":{
		"generator":"Khronos glTF Blender I/O v3.6.28",
		"version":"2.0"
	},
	"scene":0,
	"scenes":[
		{
			"name":"Scene",
			"nodes":[
				0
			]
		}
	],
	"nodes":[
		{
			"mesh":0,
			"name":"left_wrist_roll_link"
		}
	],
	"meshes":[
		{
			"name":"left_wrist_roll_link",
			"primitives":[
				{
					"attributes":{
						"POSITION":0,
						"NORMAL":1
					},
					"indices":2
				}
			]
		}
	],
	"accessors":[
		{
			"bufferView":0,
			"componentType":5126,
			"count":3563,
			"max":[
				0.05599305406212807,
				0.02999999187886715,
				0.030494267120957375
			],
			"min":[
				-4.373005372393509e-15,
				-0.02999999187886715,
				-0.029999999329447746
			],
			"type":"VEC3"
		},
		{
			"bufferView":1,
			"componentType":5126,
			"count":3563,
			"type":"VEC3"
		},
		{
			"bufferView":2,
			"componentType":5123,
			"count":21366,
			"type":"SCALAR"
		}
	],
	"bufferViews":[
		{
			"buffer":0,
			"byteLength":42756,
			"byteOffset":0,
			"target":34962
		},
		{
			"buffer":0,
			"byteLength":42756,
			"byteOffset":42756,
			"target":34962
		},
		{
			"buffer":0,
			"byteLength":42732,
			"byteOffset":85512,
			"target":34963
		}
	],
	"buffers":[
		{
			"byteLength":128244,
			"uri":"left_wrist_roll_link.STL.bin"
		}
	]
}
