{
	"asset":{
		"generator":"Khronos glTF Blender I/O v3.6.28",
		"version":"2.0"
	},
	"scene":0,
	"scenes":[
		{
			"name":"Scene",
			"nodes":[
				0
			]
		}
	],
	"nodes":[
		{
			"mesh":0,
			"name":"left_rubber_hand"
		}
	],
	"meshes":[
		{
			"name":"left_rubber_hand",
			"primitives":[
				{
					"attributes":{
						"POSITION":0,
						"NORMAL":1
					},
					"indices":2
				}
			]
		}
	],
	"accessors":[
		{
			"bufferView":0,
			"componentType":5126,
			"count":22876,
			"max":[
				0.13182935118675232,
				0.06344989687204361,
				0.0479060634970665
			],
			"min":[
				-2.780881303010574e-08,
				-0.043028898537158966,
				-0.018651477992534637
			],
			"type":"VEC3"
		},
		{
			"bufferView":1,
			"componentType":5126,
			"count":22876,
			"type":"VEC3"
		},
		{
			"bufferView":2,
			"componentType":5123,
			"count":137244,
			"type":"SCALAR"
		}
	],
	"bufferViews":[
		{
			"buffer":0,
			"byteLength":274512,
			"byteOffset":0,
			"target":34962
		},
		{
			"buffer":0,
			"byteLength":274512,
			"byteOffset":274512,
			"target":34962
		},
		{
			"buffer":0,
			"byteLength":274488,
			"byteOffset":549024,
			"target":34963
		}
	],
	"buffers":[
		{
			"byteLength":823512,
			"uri":"left_rubber_hand.STL.bin"
		}
	]
}
