{
	"asset":{
		"generator":"Khronos glTF Blender I/O v3.6.28",
		"version":"2.0"
	},
	"scene":0,
	"scenes":[
		{
			"name":"Scene",
			"nodes":[
				0
			]
		}
	],
	"nodes":[
		{
			"mesh":0,
			"name":"left_wrist_yaw_link"
		}
	],
	"meshes":[
		{
			"name":"left_wrist_yaw_link",
			"primitives":[
				{
					"attributes":{
						"POSITION":0,
						"NORMAL":1
					},
					"indices":2
				}
			]
		}
	],
	"accessors":[
		{
			"bufferView":0,
			"componentType":5126,
			"count":3188,
			"max":[
				0.04150019958615303,
				0.029999999329447746,
				0.023864509537816048
			],
			"min":[
				-0.0179926548153162,
				-0.030494192615151405,
				-0.030000001192092896
			],
			"type":"VEC3"
		},
		{
			"bufferView":1,
			"componentType":5126,
			"count":3188,
			"type":"VEC3"
		},
		{
			"bufferView":2,
			"componentType":5123,
			"count":19116,
			"type":"SCALAR"
		}
	],
	"bufferViews":[
		{
			"buffer":0,
			"byteLength":38256,
			"byteOffset":0,
			"target":34962
		},
		{
			"buffer":0,
			"byteLength":38256,
			"byteOffset":38256,
			"target":34962
		},
		{
			"buffer":0,
			"byteLength":38232,
			"byteOffset":76512,
			"target":34963
		}
	],
	"buffers":[
		{
			"byteLength":114744,
			"uri":"left_wrist_yaw_link.STL.bin"
		}
	]
}
