{
	"asset":{
		"generator":"Khronos glTF Blender I/O v3.6.28",
		"version":"2.0"
	},
	"scene":0,
	"scenes":[
		{
			"name":"Scene",
			"nodes":[
				0
			]
		}
	],
	"nodes":[
		{
			"mesh":0,
			"name":"left_shoulder_pitch_link"
		}
	],
	"meshes":[
		{
			"name":"left_shoulder_pitch_link",
			"primitives":[
				{
					"attributes":{
						"POSITION":0,
						"NORMAL":1
					},
					"indices":2
				}
			]
		}
	],
	"accessors":[
		{
			"bufferView":0,
			"componentType":5126,
			"count":1770,
			"max":[
				0.031035970896482468,
				0.040049511939287186,
				7.454270978257682e-09
			],
			"min":[
				-0.031012414023280144,
				-0.050329867750406265,
				-0.0744975134730339
			],
			"type":"VEC3"
		},
		{
			"bufferView":1,
			"componentType":5126,
			"count":1770,
			"type":"VEC3"
		},
		{
			"bufferView":2,
			"componentType":5123,
			"count":10602,
			"type":"SCALAR"
		}
	],
	"bufferViews":[
		{
			"buffer":0,
			"byteLength":21240,
			"byteOffset":0,
			"target":34962
		},
		{
			"buffer":0,
			"byteLength":21240,
			"byteOffset":21240,
			"target":34962
		},
		{
			"buffer":0,
			"byteLength":21204,
			"byteOffset":42480,
			"target":34963
		}
	],
	"buffers":[
		{
			"byteLength":63684,
			"uri":"left_shoulder_pitch_link.STL.bin"
		}
	]
}
