{
	"asset":{
		"generator":"Khronos glTF Blender I/O v3.6.28",
		"version":"2.0"
	},
	"scene":0,
	"scenes":[
		{
			"name":"Scene",
			"nodes":[
				0
			]
		}
	],
	"nodes":[
		{
			"mesh":0,
			"name":"left_shoulder_pitch_link.bbox"
		}
	],
	"meshes":[
		{
			"name":"left_shoulder_pitch_link.bbox",
			"primitives":[
				{
					"attributes":{
						"POSITION":0,
						"NORMAL":1
					},
					"indices":2
				}
			]
		}
	],
	"accessors":[
		{
			"bufferView":0,
			"componentType":5126,
			"count":126,
			"max":[
				0.031036000698804855,
				0.02466999925673008,
				0.0005019999807700515
			],
			"min":[
				-0.031012000516057014,
				-0.05033000186085701,
				-0.0744979977607727
			],
			"type":"VEC3"
		},
		{
			"bufferView":1,
			"componentType":5126,
			"count":126,
			"type":"VEC3"
		},
		{
			"bufferView":2,
			"componentType":5123,
			"count":180,
			"type":"SCALAR"
		}
	],
	"bufferViews":[
		{
			"buffer":0,
			"byteLength":1512,
			"byteOffset":0,
			"target":34962
		},
		{
			"buffer":0,
			"byteLength":1512,
			"byteOffset":1512,
			"target":34962
		},
		{
			"buffer":0,
			"byteLength":360,
			"byteOffset":3024,
			"target":34963
		}
	],
	"buffers":[
		{
			"byteLength":3384,
			"uri":"left_shoulder_pitch_link.bbox.bin"
		}
	]
}
