{
	"asset":{
		"generator":"Khronos glTF Blender I/O v3.6.28",
		"version":"2.0"
	},
	"scene":0,
	"scenes":[
		{
			"name":"Scene",
			"nodes":[
				0
			]
		}
	],
	"nodes":[
		{
			"mesh":0,
			"name":"right_hand_thumb_1_link"
		}
	],
	"meshes":[
		{
			"name":"right_hand_thumb_1_link",
			"primitives":[
				{
					"attributes":{
						"POSITION":0,
						"NORMAL":1
					},
					"indices":2
				}
			]
		}
	],
	"accessors":[
		{
			"bufferView":0,
			"componentType":5126,
			"count":4761,
			"max":[
				0.014650003984570503,
				0.012900000438094139,
				0.007000000216066837
			],
			"min":[
				-0.012600000016391277,
				-0.012799999676644802,
				-0.05480000004172325
			],
			"type":"VEC3"
		},
		{
			"bufferView":1,
			"componentType":5126,
			"count":4761,
			"type":"VEC3"
		},
		{
			"bufferView":2,
			"componentType":5123,
			"count":28554,
			"type":"SCALAR"
		}
	],
	"bufferViews":[
		{
			"buffer":0,
			"byteLength":57132,
			"byteOffset":0,
			"target":34962
		},
		{
			"buffer":0,
			"byteLength":57132,
			"byteOffset":57132,
			"target":34962
		},
		{
			"buffer":0,
			"byteLength":57108,
			"byteOffset":114264,
			"target":34963
		}
	],
	"buffers":[
		{
			"byteLength":171372,
			"uri":"right_hand_thumb_1_link.STL.bin"
		}
	]
}
